<svg xmlns="http://www.w3.org/2000/svg" viewBox="0 0 24 24">
  <!-- 背景圆形 -->
  <circle cx="12" cy="12" r="11" fill="#1890FF"/>

  <!-- 微信聊天气泡 -->
  <path d="M8.5 7c-2.5 0-4.5 1.6-4.5 3.5s1.8 3.5 4 3.8l1.2 1v-1c1-.6 1.8-1.5 1.8-2.8 0-1.9-1.8-3.5-4-3.5zm-1.5 2.5c-.3 0-.5-.2-.5-.5s.2-.5.5-.5.5.2.5.5-.2.5-.5.5zm2.5 0c-.3 0-.5-.2-.5-.5s.2-.5.5-.5.5.2.5.5-.2.5-.5.5z" fill="white"/>

  <!-- 第二个聊天气泡 -->
  <path d="M15 11c-2 0-3.5 1.3-3.5 3s1.3 3 3.2 3.2l1 .8v-.8c.8-.5 1.3-1.2 1.3-2.2 0-1.7-1.3-3-3-3zm-1 2c-.2 0-.4-.2-.4-.4s.2-.4.4-.4.4.2.4.4-.2.4-.4.4zm2 0c-.2 0-.4-.2-.4-.4s.2-.4.4-.4.4.2.4.4-.2.4-.4.4z" fill="white"/>

  <!-- 企业标识 -->
  <rect x="16" y="6" width="3" height="3" rx="0.5" fill="white"/>
  <rect x="16.5" y="6.5" width="2" height="0.5" fill="#1890FF"/>
  <rect x="16.5" y="7.2" width="1.5" height="0.3" fill="#1890FF"/>
  <rect x="16.5" y="7.7" width="1.8" height="0.3" fill="#1890FF"/>
</svg>