<svg xmlns="http://www.w3.org/2000/svg" viewBox="0 0 24 24" fill="#07C160">
  <path d="M8.5 6.5c-2.5 0-4.5 1.8-4.5 4s2 4 4.5 4c.3 0 .6 0 .9-.1l2.1 1.1v-1.5c1.2-.8 2-2.1 2-3.5 0-2.2-2-4-4.5-4zm-1.5 3c-.3 0-.5-.2-.5-.5s.2-.5.5-.5.5.2.5.5-.2.5-.5.5zm3 0c-.3 0-.5-.2-.5-.5s.2-.5.5-.5.5.2.5.5-.2.5-.5.5z"/>
  <path d="M15.5 12.5c-2.2 0-4 1.6-4 3.5 0 1.2.7 2.3 1.7 3v1.3l1.8-1c.3 0 .3.1.5.1 2.2 0 4-1.6 4-3.5s-1.8-3.5-4-3.5zm-1.5 2.5c-.3 0-.5-.2-.5-.5s.2-.5.5-.5.5.2.5.5-.2.5-.5.5zm2 0c-.3 0-.5-.2-.5-.5s.2-.5.5-.5.5.2.5.5-.2.5-.5.5z"/>
</svg>